<?xml version="1.0" encoding="UTF-8"?> <svg xmlns="http://www.w3.org/2000/svg" width="984" height="513" viewBox="0 0 984 513"><g id="Building_smart_contracts_dapp_on_Solana" data-name="Building smart contracts&amp; dapp on Solana" transform="translate(-192 -328)"><rect id="Rectangle_10" data-name="Rectangle 10" width="984" height="513" transform="translate(192 328)" fill="#fff"></rect><g id="Group_1" data-name="Group 1" transform="translate(94 -244)"><rect id="Rectangle_1" data-name="Rectangle 1" width="247" height="397" rx="11" transform="translate(192 620)" fill="#fff"></rect><path id="Rectangle_1_-_Outline" data-name="Rectangle 1 - Outline" d="M11,2a9.01,9.01,0,0,0-9,9V386a9.01,9.01,0,0,0,9,9H236a9.01,9.01,0,0,0,9-9V11a9.01,9.01,0,0,0-9-9H11m0-2H236a11,11,0,0,1,11,11V386a11,11,0,0,1-11,11H11A11,11,0,0,1,0,386V11A11,11,0,0,1,11,0Z" transform="translate(192 620)" fill="#1b54f8"></path><rect id="Rectangle_5" data-name="Rectangle 5" width="281" height="149" rx="11" transform="translate(707 620)" fill="#fff"></rect><path id="Rectangle_5_-_Outline" data-name="Rectangle 5 - Outline" d="M11,2a9.01,9.01,0,0,0-9,9V138a9.01,9.01,0,0,0,9,9H270a9.01,9.01,0,0,0,9-9V11a9.01,9.01,0,0,0-9-9H11m0-2H270a11,11,0,0,1,11,11V138a11,11,0,0,1-11,11H11A11,11,0,0,1,0,138V11A11,11,0,0,1,11,0Z" transform="translate(707 620)" fill="#1b54f8"></path><rect id="Rectangle_7" data-name="Rectangle 7" width="281" height="225" rx="11" transform="translate(707 792)" fill="#fff"></rect><path id="Rectangle_7_-_Outline" data-name="Rectangle 7 - Outline" d="M11,2a9.01,9.01,0,0,0-9,9V214a9.01,9.01,0,0,0,9,9H270a9.01,9.01,0,0,0,9-9V11a9.01,9.01,0,0,0-9-9H11m0-2H270a11,11,0,0,1,11,11V214a11,11,0,0,1-11,11H11A11,11,0,0,1,0,214V11A11,11,0,0,1,11,0Z" transform="translate(707 792)" fill="#1b54f8"></path><rect id="Rectangle_9" data-name="Rectangle 9" width="112" height="112" rx="11" transform="translate(482 852)" fill="#fff"></rect><path id="Rectangle_9_-_Outline" data-name="Rectangle 9 - Outline" d="M11,0h1a1,1,0,0,1,0,2H11a1,1,0,0,1,0-2Zm5,0h1a1,1,0,0,1,0,2H16a1,1,0,0,1,0-2Zm5,0h1a1,1,0,0,1,0,2H21a1,1,0,0,1,0-2Zm5,0h1a1,1,0,0,1,0,2H26a1,1,0,0,1,0-2Zm5,0h1a1,1,0,0,1,0,2H31a1,1,0,0,1,0-2Zm5,0h1a1,1,0,0,1,0,2H36a1,1,0,0,1,0-2Zm5,0h1a1,1,0,0,1,0,2H41a1,1,0,0,1,0-2Zm5,0h1a1,1,0,0,1,0,2H46a1,1,0,0,1,0-2Zm5,0h1a1,1,0,0,1,0,2H51a1,1,0,0,1,0-2Zm5,0h1a1,1,0,0,1,0,2H56a1,1,0,0,1,0-2Zm5,0h1a1,1,0,0,1,0,2H61a1,1,0,0,1,0-2Zm5,0h1a1,1,0,0,1,0,2H66a1,1,0,0,1,0-2Zm5,0h1a1,1,0,0,1,0,2H71a1,1,0,0,1,0-2Zm5,0h1a1,1,0,0,1,0,2H76a1,1,0,0,1,0-2Zm5,0h1a1,1,0,0,1,0,2H81a1,1,0,0,1,0-2Zm5,0h1a1,1,0,0,1,0,2H86a1,1,0,0,1,0-2Zm5,0h1a1,1,0,0,1,0,2H91a1,1,0,0,1,0-2Zm5,0h1a1,1,0,0,1,0,2H96a1,1,0,0,1,0-2Zm5,0h.252q.263.006.522.024h.046L102,.045a1,1,0,0,1-.183,1.992c-.27-.024-.546-.037-.82-.037a1,1,0,0,1,0-2Zm4.391,1.012a1,1,0,0,1,.439.1l.007,0,.022.011h0l.006,0,.007,0,.007,0,.007,0,.007,0,.007,0,.008,0,.007,0,.008,0,.007,0h0l.007,0h0l.007,0h0l.029.015h0l.006,0,.007,0,.007,0,.007,0,.007,0,.008,0,.008,0,.007,0,.008,0h0l.007,0h0l.044.023h0l.007,0h0l.006,0,.007,0,.007,0,.007,0,.007,0,.007,0h0l.006,0h0l.007,0h0l.051.027h0l.014.008.007,0,.007,0,.008,0,.007,0,.007,0h0l.007,0h0l.065.036h0l.007,0h0l.006,0h0l.006,0h0l.006,0h0l.006,0h0l.007,0h0l.007,0h0l.072.041h0l.007,0h0l.007,0h0l.007,0h0l.079.046h0l.014.008h0l.007,0h0l.006,0h0l.006,0h0l.007,0h0l.007,0h0l.057.034h0l.006,0h0l.006,0h0l.005,0h0l.005,0h0l0,0,0,0a1,1,0,0,1-1.04,1.709c-.232-.141-.473-.273-.717-.393a1,1,0,0,1,.44-1.9Zm3.5,2.843a1,1,0,0,1,.789.385q.257.329.488.677h0l0,0,0,0,0,0,0,0,0,0,0,0,0,0,0,0v0l0,.006h0l0,.006h0l0,.006h0l.058.09a1,1,0,0,1-1.683,1.081c-.147-.228-.306-.453-.474-.667a1,1,0,0,1,.788-1.615Zm1.9,4.085a1,1,0,0,1,.977.794q.074.356.126.719h0v.016h0V9.49q.016.116.029.232a1,1,0,1,1-1.987.23c-.031-.27-.075-.542-.131-.807a1,1,0,0,1,.98-1.205ZM111,12.719a1,1,0,0,1,1,1v1a1,1,0,0,1-2,0v-1A1,1,0,0,1,111,12.719Zm0,5a1,1,0,0,1,1,1v1a1,1,0,0,1-2,0v-1A1,1,0,0,1,111,17.719Zm0,5a1,1,0,0,1,1,1v1a1,1,0,0,1-2,0v-1A1,1,0,0,1,111,22.719Zm0,5a1,1,0,0,1,1,1v1a1,1,0,0,1-2,0v-1A1,1,0,0,1,111,27.719Zm0,5a1,1,0,0,1,1,1v1a1,1,0,0,1-2,0v-1A1,1,0,0,1,111,32.719Zm0,5a1,1,0,0,1,1,1v1a1,1,0,0,1-2,0v-1A1,1,0,0,1,111,37.719Zm0,5a1,1,0,0,1,1,1v1a1,1,0,0,1-2,0v-1A1,1,0,0,1,111,42.719Zm0,5a1,1,0,0,1,1,1v1a1,1,0,0,1-2,0v-1A1,1,0,0,1,111,47.719Zm0,5a1,1,0,0,1,1,1v1a1,1,0,0,1-2,0v-1A1,1,0,0,1,111,52.719Zm0,5a1,1,0,0,1,1,1v1a1,1,0,0,1-2,0v-1A1,1,0,0,1,111,57.719Zm0,5a1,1,0,0,1,1,1v1a1,1,0,0,1-2,0v-1A1,1,0,0,1,111,62.719Zm0,5a1,1,0,0,1,1,1v1a1,1,0,0,1-2,0v-1A1,1,0,0,1,111,67.719Zm0,5a1,1,0,0,1,1,1v1a1,1,0,0,1-2,0v-1A1,1,0,0,1,111,72.719Zm0,5a1,1,0,0,1,1,1v1a1,1,0,0,1-2,0v-1A1,1,0,0,1,111,77.719Zm0,5a1,1,0,0,1,1,1v1a1,1,0,0,1-2,0v-1A1,1,0,0,1,111,82.719Zm0,5a1,1,0,0,1,1,1v1a1,1,0,0,1-2,0v-1A1,1,0,0,1,111,87.719Zm0,5a1,1,0,0,1,1,1v1a1,1,0,0,1-2,0v-1A1,1,0,0,1,111,92.719Zm0,5a1,1,0,0,1,1,1v1a1,1,0,0,1-2,0v-1A1,1,0,0,1,111,97.719Zm-.3,4.729a1,1,0,0,1,.971,1.241c-.022.086-.044.172-.068.257h0l0,.007h0l0,.007h0l0,.007v0l0,.006v.014l-.01.034h0q-.085.3-.186.587h0l0,.007h0l0,.006v0l0,.005v0l0,0v.009a1,1,0,0,1-1.887-.664c.09-.256.169-.519.235-.782A1,1,0,0,1,110.7,102.448Zm-2.059,4.007a1,1,0,0,1,.763,1.645l0,0-.008.009,0,0-.008.009,0,0-.007.008,0,0-.007.008,0,0-.007.008,0,0-.007.008,0,0-.007.008,0,0-.007.008,0,0-.007.008,0,0-.007.008,0,0-.005.006-.005.006,0,.005-.006.007,0,.005-.006.007,0,0-.007.008,0,0-.007.008,0,0-.007.008,0,0-.005.006v0l-.009.01,0,0-.008.009,0,0-.009.01,0,0-.009.009,0,0-.009.01,0,0-.009.01v0l-.01.011h0l-.01.011h0l-.039.042h0l-.01.011h0l-.011.012h0l-.011.012h0l-.011.011h0l-.051.054h0l-.011.011h0l-.01.011,0,0-.009.01,0,0-.009.009,0,0-.009.009,0,0-.008.009,0,0-.005.005-.006.006-.005.005-.006.006-.005.005,0,0-.007.007,0,0-.006.006-.005.005-.005.006-.006.006,0,0-.006.007,0,0-.008.008,0,0-.008.009,0,0-.009.009,0,0-.009.009,0,0-.009.01h0l-.01.01h0l-.066.066a1,1,0,1,1-1.4-1.424c.194-.191.381-.393.557-.6A1,1,0,0,1,108.639,106.455Zm-3.61,2.7a1,1,0,0,1,.4,1.915q-.456.2-.932.361a1,1,0,1,1-.636-1.9c.257-.086.513-.185.762-.295A1,1,0,0,1,105.029,109.155ZM99.562,110h1a1,1,0,0,1,0,2h-1a1,1,0,0,1,0-2Zm-5,0h1a1,1,0,0,1,0,2h-1a1,1,0,0,1,0-2Zm-5,0h1a1,1,0,0,1,0,2h-1a1,1,0,0,1,0-2Zm-5,0h1a1,1,0,0,1,0,2h-1a1,1,0,0,1,0-2Zm-5,0h1a1,1,0,0,1,0,2h-1a1,1,0,0,1,0-2Zm-5,0h1a1,1,0,0,1,0,2h-1a1,1,0,0,1,0-2Zm-5,0h1a1,1,0,0,1,0,2h-1a1,1,0,0,1,0-2Zm-5,0h1a1,1,0,0,1,0,2h-1a1,1,0,1,1,0-2Zm-5,0h1a1,1,0,0,1,0,2h-1a1,1,0,0,1,0-2Zm-5,0h1a1,1,0,0,1,0,2h-1a1,1,0,0,1,0-2Zm-5,0h1a1,1,0,0,1,0,2h-1a1,1,0,0,1,0-2Zm-5,0h1a1,1,0,1,1,0,2h-1a1,1,0,0,1,0-2Zm-5,0h1a1,1,0,1,1,0,2h-1a1,1,0,0,1,0-2Zm-5,0h1a1,1,0,1,1,0,2h-1a1,1,0,0,1,0-2Zm-5,0h1a1,1,0,1,1,0,2h-1a1,1,0,0,1,0-2Zm-5,0h1a1,1,0,1,1,0,2h-1a1,1,0,0,1,0-2Zm-5,0h1a1,1,0,1,1,0,2h-1a1,1,0,0,1,0-2Zm-5,0h1a1,1,0,1,1,0,2h-1a1,1,0,0,1,0-2Zm-4.868-.084a1.01,1.01,0,0,1,.13.008c.269.035.544.058.816.069a1,1,0,0,1-.078,2q-.362-.014-.717-.051H9.8l-.017,0H9.737l-.172-.021a1,1,0,0,1,.129-1.992Zm-4.216-1.578a1,1,0,0,1,.552.167c.226.15.462.292.7.421a1,1,0,1,1-.95,1.76l-.055-.03h0l-.006,0h0l-.038-.021-.006,0,0,0-.007,0-.007,0-.007,0h0l-.005,0-.007,0h0l-.005,0h0l-.006,0h0l-.006,0h0l-.007,0h0l-.007,0h0q-.152-.086-.3-.176h0l-.014-.008h0l-.007,0h0l-.007,0h0l-.014-.009h0l-.056-.035h0l-.007,0h0l-.006,0h0l-.006,0h0l-.006,0h0l-.006,0h0l-.006,0h0l-.006,0h0l-.006,0h0l-.013-.008h0l-.042-.027h0l-.006,0h0l-.006,0h0l-.005,0h0l-.005,0h0l-.006,0h0l-.006,0h0l-.006,0h0l-.007,0h0l-.107-.07a1,1,0,0,1,.555-1.832Zm-3.1-3.273a1,1,0,0,1,.863.493c.138.234.288.465.447.685a1,1,0,0,1-1.625,1.167q-.291-.405-.546-.838a1,1,0,0,1,.861-1.507Zm-1.344-4.3a1,1,0,0,1,1,.925c.021.272.054.545.1.812a1,1,0,0,1-1.972.335q-.03-.179-.054-.359h0v-.046q-.038-.293-.061-.591a1,1,0,0,1,.922-1.073ZM1,95.842a1,1,0,0,1,1,1v1a1,1,0,0,1-2,0v-1A1,1,0,0,1,1,95.842Zm0-5a1,1,0,0,1,1,1v1a1,1,0,0,1-2,0v-1A1,1,0,0,1,1,90.842Zm0-5a1,1,0,0,1,1,1v1a1,1,0,0,1-2,0v-1A1,1,0,0,1,1,85.842Zm0-5a1,1,0,0,1,1,1v1a1,1,0,0,1-2,0v-1A1,1,0,0,1,1,80.842Zm0-5a1,1,0,0,1,1,1v1a1,1,0,0,1-2,0v-1A1,1,0,0,1,1,75.842Zm0-5a1,1,0,0,1,1,1v1a1,1,0,0,1-2,0v-1A1,1,0,0,1,1,70.842Zm0-5a1,1,0,0,1,1,1v1a1,1,0,0,1-2,0v-1A1,1,0,0,1,1,65.842Zm0-5a1,1,0,0,1,1,1v1a1,1,0,0,1-2,0v-1A1,1,0,0,1,1,60.842Zm0-5a1,1,0,0,1,1,1v1a1,1,0,0,1-2,0v-1A1,1,0,0,1,1,55.842Zm0-5a1,1,0,0,1,1,1v1a1,1,0,0,1-2,0v-1A1,1,0,0,1,1,50.842Zm0-5a1,1,0,0,1,1,1v1a1,1,0,1,1-2,0v-1A1,1,0,0,1,1,45.842Zm0-5a1,1,0,0,1,1,1v1a1,1,0,0,1-2,0v-1A1,1,0,0,1,1,40.842Zm0-5a1,1,0,0,1,1,1v1a1,1,0,0,1-2,0v-1A1,1,0,0,1,1,35.842Zm0-5a1,1,0,0,1,1,1v1a1,1,0,0,1-2,0v-1A1,1,0,0,1,1,30.842Zm0-5a1,1,0,0,1,1,1v1a1,1,0,0,1-2,0v-1A1,1,0,0,1,1,25.842Zm0-5a1,1,0,0,1,1,1v1a1,1,0,0,1-2,0v-1A1,1,0,0,1,1,20.842Zm0-5a1,1,0,0,1,1,1v1a1,1,0,0,1-2,0v-1A1,1,0,0,1,1,15.842Zm0-5a1,1,0,0,1,1,1v1a1,1,0,0,1-2,0v-1A1,1,0,0,1,1,10.842Zm.7-4.533a1,1,0,0,1,.929,1.37c-.1.252-.19.512-.266.772A1,1,0,0,1,.446,7.888c.022-.075.045-.15.068-.224h0l.01-.032h0l0-.008h0L.535,7.6h0l0-.007v0l0-.006V7.547l0,0v0l0-.005v0l0-.006v0q.079-.236.168-.468h0l0-.007h0l0-.007h0l0-.007h0l0-.007h0l.017-.043h0l0-.006v0l0-.005v0l0-.005v0l0,0v0l0,0V6.939A1,1,0,0,1,1.7,6.309ZM4.269,2.6a1,1,0,0,1,.674,1.739c-.2.183-.4.378-.58.578a1,1,0,0,1-1.475-1.35l0,0L2.9,3.56l0,0,.008-.009,0,0,.008-.009,0,0,.009-.01v0l.009-.01h0l.01-.01h0l.009-.01,0,0,.009-.01,0,0,.009-.01,0,0,.009-.01,0,0L3,3.445v0l.009-.01h0l.01-.01h0l.01-.011h0l.01-.01h0l.009-.01,0,0,.009-.009,0,0,.008-.009,0,0,.008-.009,0,0L3.1,3.345l0,0,.008-.008,0,0,.007-.007,0,0,.006-.006.006-.006,0,0,.007-.007,0,0,.007-.007,0,0,.008-.008,0,0q.206-.208.423-.406A1,1,0,0,1,4.269,2.6ZM8.2.4a1,1,0,0,1,.279,1.96c-.26.076-.52.165-.773.264A1,1,0,0,1,6.971.761q.466-.183.951-.325A1,1,0,0,1,8.2.4Z" transform="translate(482 852)" fill="#1b54f8"></path><rect id="Rectangle_6" data-name="Rectangle 6" width="239" height="71" rx="11" transform="translate(728 677)" fill="#eee"></rect><rect id="Rectangle_8" data-name="Rectangle 8" width="239" height="145" rx="11" transform="translate(728 852)" fill="#eee"></rect><text id="Solana_Network" data-name="Solana Network" transform="translate(246 655)" fill="#1c1c1c" font-size="20" font-family="OpenSans-Bold, Open Sans" font-weight="700"><tspan x="0" y="0">Solana Network</tspan></text><text id="Program" transform="translate(847 655)" fill="#1c1c1c" font-size="20" font-family="OpenSans-Bold, Open Sans" font-weight="700"><tspan x="-43.062" y="0">Program</tspan></text><text id="Client" transform="translate(847 827)" fill="#1c1c1c" font-size="20" font-family="OpenSans-Bold, Open Sans" font-weight="700"><tspan x="-29.297" y="0">Client</tspan></text><text id="Rust_C_C_" data-name="Rust, C, C++" transform="translate(848 702)" fill="#1c1c1c" font-size="16" font-family="OpenSans-Regular, Open Sans"><tspan x="-43.816" y="0">Rust, C, C++</tspan></text><text id="Deploy_Rust_Program_to_Solana" data-name="Deploy Rust Program to Solana" transform="translate(696 656)" fill="#1c1c1c" font-size="14" font-family="OpenSans-SemiBold, Open Sans" font-weight="600"><tspan x="-80.814" y="0">Deploy Rust</tspan><tspan x="-125.139" y="19">Program to Solana</tspan></text><text id="Transaction" transform="translate(696 869)" fill="#1c1c1c" font-size="14" font-family="OpenSans-SemiBold, Open Sans" font-weight="600"><tspan x="-79.68" y="0">Transaction</tspan></text><text id="JSON_RPC_API" data-name="JSON RPC API" transform="translate(583 913)" fill="#1c1c1c" font-size="14" font-family="OpenSans-SemiBold, Open Sans" font-weight="600"><tspan x="-89.715" y="0">JSON RPC API</tspan></text><text id="Query" transform="translate(696 949)" fill="#1c1c1c" font-size="14" font-family="OpenSans-SemiBold, Open Sans" font-weight="600"><tspan x="-41.515" y="0">Query</tspan></text><text id="Command_Line_Interface_JavaScript_SDK_Rust_SDK_3rd_Party_SDKs" data-name="Command Line Interface JavaScript SDK Rust SDK 3rd Party SDKs" transform="translate(755 877)" fill="#1c1c1c" font-size="16" font-family="OpenSans-Regular, Open Sans"><tspan x="0" y="0">Command Line</tspan><tspan x="0" y="27">Interface</tspan><tspan x="0" y="54">JavaScript SDK</tspan><tspan x="0" y="81">Rust SDK</tspan><tspan x="0" y="108">3rd Party SDKs</tspan></text><text id="_Solana_BPF_Bytecode_" data-name="(Solana BPF Bytecode)" transform="translate(848 735)" fill="#1c1c1c" font-size="16" font-family="OpenSans-Regular, Open Sans"><tspan x="-82.633" y="0">(Solana BPF Bytecode)</tspan></text><rect id="Rectangle_4" data-name="Rectangle 4" width="97" height="97" rx="11" transform="translate(299 790)" fill="#fff"></rect><path id="Rectangle_4_-_Outline" data-name="Rectangle 4 - Outline" d="M11,1A10.011,10.011,0,0,0,1,11V86A10.011,10.011,0,0,0,11,96H86A10.011,10.011,0,0,0,96,86V11A10.011,10.011,0,0,0,86,1H11m0-1H86A11,11,0,0,1,97,11V86A11,11,0,0,1,86,97H11A11,11,0,0,1,0,86V11A11,11,0,0,1,11,0Z" transform="translate(299 790)" fill="#707070"></path><rect id="Rectangle_3" data-name="Rectangle 3" width="105" height="105" rx="11" transform="translate(275 768)" fill="#fff"></rect><path id="Rectangle_3_-_Outline" data-name="Rectangle 3 - Outline" d="M11,1A10.011,10.011,0,0,0,1,11V94a10.011,10.011,0,0,0,10,10H94a10.011,10.011,0,0,0,10-10V11A10.011,10.011,0,0,0,94,1H11m0-1H94a11,11,0,0,1,11,11V94a11,11,0,0,1-11,11H11A11,11,0,0,1,0,94V11A11,11,0,0,1,11,0Z" transform="translate(275 768)" fill="#707070"></path><rect id="Rectangle_2" data-name="Rectangle 2" width="105" height="105" rx="11" transform="translate(249 753)" fill="#fff"></rect><path id="Rectangle_2_-_Outline" data-name="Rectangle 2 - Outline" d="M11,1A10.011,10.011,0,0,0,1,11V94a10.011,10.011,0,0,0,10,10H94a10.011,10.011,0,0,0,10-10V11A10.011,10.011,0,0,0,94,1H11m0-1H94a11,11,0,0,1,11,11V94a11,11,0,0,1-11,11H11A11,11,0,0,1,0,94V11A11,11,0,0,1,11,0Z" transform="translate(249 753)" fill="#707070"></path><text id="Nodes" transform="translate(282 814)" fill="#1c1c1c" font-size="16" font-family="OpenSans-Regular, Open Sans"><tspan x="0" y="0">Nodes</tspan></text><path id="Path_1" data-name="Path 1" d="M739.215,695.5H489.988v-2H739.215Z" transform="translate(-43.262)" fill="#cecece"></path><path id="Path_4" data-name="Path 4" d="M739.215,695.5H489.988v-2H739.215Z" transform="translate(-43.262 195.472)" fill="#cecece"></path><path id="Path_6" data-name="Path 6" d="M739.215,695.5H489.988v-2H739.215Z" transform="translate(-43.262 232.62)" fill="#cecece"></path><path id="Path_2" data-name="Path 2" d="M497.023,703.609l-8.954-8.954,8.954-8.954,1.414,1.414-7.54,7.54,7.54,7.54Z" transform="translate(-42.757)" fill="#cecece"></path><path id="Path_3" data-name="Path 3" d="M497.023,703.609l-8.954-8.954,8.954-8.954,1.414,1.414-7.54,7.54,7.54,7.54Z" transform="translate(-42.757 195.472)" fill="#cecece"></path><path id="Path_5" data-name="Path 5" d="M497.023,703.609l-8.954-8.954,8.954-8.954,1.414,1.414-7.54,7.54,7.54,7.54Z" transform="translate(-42.757 232.62)" fill="#cecece"></path></g><text id="LeewayHertz" transform="translate(1156 820)" fill="#051c2c" font-size="14" font-family="Georgia"><tspan x="-81.211" y="0">LeewayHertz</tspan></text></g></svg> 